# xmcd
#
# Track frame offsets: 
#        150
#        45987
#        76776
#        88974
#        115951
#        153301
#        178274
#        196988
#        228777
#        266370
#        296880
#        311160
#
# Disc length: 4550 seconds
#
# Revision: 8
# Processed by: cddbd v1.5.2PL0 Copyright (c) Steve Scherf et al.
# Submitted via: ExactAudioCopy v1.0b3
#
DISCID=9e11c40c
DTITLE=The Zurich String Trio - Beethoven Edition cd 36 - String Trios
DTITLE=II
DYEAR=2002
DGENRE=Chamber Music
TTITLE0=String trio in G, Op.9 No.1 -  I. Adagio - Allegro Con Brio
TTITLE1=String trio in G, Op.9 No.1 - II. Adagio ma non tanto e cantab
TTITLE1=ile
TTITLE2=String trio in G, Op.9 No.1 - III. Scherzo - Allegro
TTITLE3=String trio in G, Op.9 No.1 - IV. Presto
TTITLE4=String trio in D, Op.9 No.2 - I. Allegretto
TTITLE5=String trio in D, Op.9 No.2 - II. Andante quasi allegretto
TTITLE6=String trio in D, Op.9 No.2 - III. Menuetto - Allegro
TTITLE7=String trio in D, Op.9 No.2 - IV. Rondo - Allegro 
TTITLE8=String trio in C minor, Op.9 No.3 - I. Allegro con spirito
TTITLE9=String trio in C minor, Op.9 No.3 - II. Adagio con espressione
TTITLE10=String trio in C minor, Op.9 No.3 - III. Scherzo - Allegro mol
TTITLE10=to e vivace
TTITLE11=String trio in C minor, Op.9 No.3 - IV. Finale - Presto
EXTD=YEAR: 2002
EXTT0=
EXTT1=
EXTT2=
EXTT3=
EXTT4=
EXTT5=
EXTT6=
EXTT7=
EXTT8=
EXTT9=
EXTT10=
EXTT11=
PLAYORDER=
